<svg width="82" height="89" viewBox="0 0 82 89" fill="none" xmlns="http://www.w3.org/2000/svg">
<path d="M14.3815 44.5084C14.3815 33.7896 14.4015 23.0708 14.3556 12.35C14.3496 11.1481 14.645 10.7768 15.8868 10.7828C25.1263 10.8347 34.3677 10.7748 43.6072 10.8227C58.76 10.9006 72.8508 22.7813 75.6258 37.7565C78.4428 52.9573 71.7767 67.064 58.2609 74.3869C53.3757 77.0342 48.0832 78.236 42.5531 78.27C33.6829 78.3259 24.8128 78.256 15.9427 78.3179C14.6151 78.3278 14.3516 77.8886 14.3576 76.6648C14.3975 65.946 14.3795 55.2272 14.3815 44.5084ZM19.9755 16.4227C19.9755 17.1314 19.9755 17.6305 19.9755 18.1316C19.9735 35.778 19.9815 53.4244 19.9475 71.0728C19.9455 72.2807 20.1871 72.7458 21.5267 72.7319C28.4543 72.662 35.3839 72.7139 42.3135 72.6959C59.8321 72.65 72.8189 57.6449 70.3832 40.28C68.5066 26.8979 56.542 16.4466 43.0602 16.4267C35.9469 16.4167 28.8336 16.4247 21.7184 16.4247C21.2173 16.4227 20.7162 16.4227 19.9755 16.4227Z" fill="white"/>
<path d="M30.1714 8.42905C24.7651 8.42905 19.3608 8.44502 13.9544 8.41308C13.078 8.40709 12.5849 8.58078 12.2116 9.50313C11.0736 12.3061 8.09693 13.8473 5.24205 13.2764C2.24142 12.6774 0.0992518 10.106 0.0852768 7.08745C0.0713019 4.0988 2.09967 1.53739 5.01845 0.854611C7.92325 0.175826 11.0017 1.65717 12.1736 4.50208C12.6009 5.54022 13.1499 5.72389 14.1321 5.7219C24.1582 5.69195 34.1822 5.70193 44.2083 5.70393C53.7452 5.70593 62.0064 9.00602 68.9719 15.4744C86.4506 31.7074 85.4764 60.2922 66.9356 75.2754C60.2615 80.6697 52.5693 83.299 44.0006 83.3229C34.1143 83.3529 24.226 83.3449 14.3397 83.311C13.2158 83.307 12.5709 83.4926 12.0558 84.6865C10.838 87.5055 7.78549 88.7991 4.78885 88.0345C1.96391 87.3138 0.00941659 84.7124 0.0892736 81.7857C0.171127 78.7711 2.29532 76.2476 5.20012 75.7066C8.13087 75.1616 11.1015 76.6808 12.1996 79.4439C12.5849 80.4122 13.1119 80.6298 14.0563 80.6278C24.0344 80.6018 34.0145 80.6637 43.9927 80.6018C60.5929 80.498 74.8993 68.5035 77.9578 52.0709C80.3096 39.4335 77.321 28.1937 68.4169 18.8164C62.0264 12.0865 54.0506 8.59475 44.7214 8.44502C39.874 8.36317 35.0207 8.42705 30.1714 8.42905ZM9.99154 7.08146C10.0155 5.17887 8.42634 3.51784 6.51975 3.45396C4.62115 3.39207 2.82637 5.09103 2.78445 6.99562C2.74252 8.81835 4.43748 10.5512 6.29615 10.5892C8.3345 10.6291 9.96758 9.07988 9.99154 7.08146ZM6.35206 78.3439C4.43948 78.3678 2.76049 80.1007 2.79643 82.0173C2.83036 83.8719 4.51135 85.499 6.39398 85.501C8.34648 85.501 10.0175 83.828 9.99154 81.8975C9.96558 79.931 8.31454 78.3199 6.35206 78.3439Z" fill="white"/>
<path d="M43.3856 43.4625C36.434 35.3889 29.6123 27.4651 22.6807 19.4155C23.054 19.2778 23.2457 19.144 23.4353 19.146C30.9159 19.176 38.4025 19.0921 45.8791 19.3037C50.8922 19.4455 55.2344 21.5238 59.0895 24.9616C53.8728 31.1066 48.718 37.1797 43.3856 43.4625Z" fill="white"/>
<path d="M22.8262 69.4699C29.6759 61.5161 36.5257 53.5644 43.4732 45.4968C48.7937 51.6877 53.9864 57.7309 59.2549 63.8639C57.001 66.1279 54.4236 67.7629 51.4809 68.5955C49.1091 69.2663 46.6076 69.7314 44.152 69.7913C37.5957 69.951 31.0335 69.8452 24.4732 69.8452C23.9761 69.8452 23.479 69.8452 22.9819 69.8452C22.93 69.7194 22.8781 69.5957 22.8262 69.4699Z" fill="white"/>
<path d="M61.0264 27.0562C70.0882 36.7169 69.2577 53.4629 61.1182 61.7939C59.2835 59.6698 57.4508 57.5575 55.6301 55.4353C52.7153 52.0394 49.8185 48.6275 46.8837 45.2496C46.3667 44.6546 46.2848 44.2534 46.8358 43.6105C51.4316 38.2541 55.9934 32.8677 60.5672 27.4934C60.681 27.3536 60.8267 27.2418 61.0264 27.0562Z" fill="white"/>
</svg>
